<?xml version="1.0" encoding="utf-8"?>
<!-- Generator: Adobe Illustrator 23.0.1, SVG Export Plug-In . SVG Version: 6.00 Build 0)  -->
<svg version="1.1" id="Layer_1" xmlns="http://www.w3.org/2000/svg" xmlns:xlink="http://www.w3.org/1999/xlink" x="0px" y="0px"
	 viewBox="0 0 40 40" style="enable-background:new 0 0 40 40;" xml:space="preserve">
<style type="text/css">
	.st0{fill:#5D0E8B;}
</style>
<g>
	<g>
		<path class="st0" d="M20,0.5C9.2,0.5,0.5,9.2,0.5,20S9.2,39.5,20,39.5S39.5,30.7,39.5,20S30.8,0.5,20,0.5z M30.9,13.5L18.9,27
			c-0.3,0.3-0.7,0.5-1.1,0.5c-0.3,0-0.7-0.1-0.9-0.3l-7.5-6c-0.6-0.5-0.8-1.5-0.2-2.1c0.5-0.6,1.5-0.8,2.1-0.2l6.4,5.1l11.1-12.4
			c0.5-0.6,1.5-0.7,2.1-0.1C31.4,11.9,31.4,12.9,30.9,13.5z"/>
	</g>
</g>
</svg>
