<?xml version="1.0" encoding="utf-8"?>
<!-- Generator: Adobe Illustrator 23.0.1, SVG Export Plug-In . SVG Version: 6.00 Build 0)  -->
<svg version="1.1" id="Layer_1" xmlns="http://www.w3.org/2000/svg" xmlns:xlink="http://www.w3.org/1999/xlink" x="0px" y="0px"
	 viewBox="0 0 40 40" style="enable-background:new 0 0 40 40;" xml:space="preserve">
<style type="text/css">
	.st0{fill:#5D0E8B;}
</style>
<g>
	<g>
		<g id="icons_9_">
			<g>
				<path class="st0" d="M12.4,24.1c-1.6-1.8-1.8-4.7-2.9-6.1c-0.9-1.2-2.4-0.6-2.6,0.4c-0.3,1.6,1.4,6.2,2.3,7.7
					c0.2,0.4-0.2,1.1-0.8,0.5C7.7,26,5.1,20,6.1,16c0.5-1.9-0.8-4-2.4-3C2,14.1,1,22.6,3.5,27.7c2.1,4.2,6.4,7,7.2,7.5
					c0.5,0.3,0.7,2.2,0.8,3.4c0,0.6,0.2,0.9,0.8,0.9c0.7,0,2,0,4,0c1,0,1-0.6,1-0.9C17.3,31.1,17.7,30.2,12.4,24.1z"/>
				<path class="st0" d="M27.6,24.1c1.6-1.8,1.8-4.7,2.9-6.1c0.9-1.2,2.4-0.6,2.6,0.4c0.3,1.6-1.4,6.2-2.3,7.7
					c-0.2,0.4,0.2,1.1,0.8,0.5C32.3,26,34.9,20,33.9,16c-0.5-1.9,0.8-4,2.4-3c1.7,1,2.6,9.6,0.2,14.6c-2.1,4.2-6.4,7-7.2,7.5
					c-0.5,0.3-0.7,2.2-0.8,3.4c0,0.6-0.2,0.9-0.8,0.9c-0.7,0-2,0-4,0c-1,0-1-0.6-1-0.9C22.7,31.1,22.3,30.2,27.6,24.1z"/>
				<path class="st0" d="M25.2,0.5c-2,0-3.9,0.8-5.2,2.1c-1.4-1.3-3.2-2.1-5.2-2.1c-4.1,0-7.5,3.4-7.5,7.5c0,1.6,0.5,3.1,1.4,4.3
					c0.3,0.5,0.8,1,1.2,1.5l7.8,7.8c0.8,0.8,1.6,1.6,2.3,1.6l0,0l0,0c0.8,0,1.6-0.8,2.3-1.6l7.8-7.8c0.5-0.4,0.9-0.9,1.2-1.5
					c0.9-1.2,1.4-2.7,1.4-4.3C32.7,3.9,29.3,0.5,25.2,0.5z"/>
			</g>
		</g>
	</g>
</g>
</svg>
