<?xml version="1.0" encoding="utf-8"?>
<!-- Generator: Adobe Illustrator 23.0.1, SVG Export Plug-In . SVG Version: 6.00 Build 0)  -->
<svg version="1.1" id="Layer_1" xmlns="http://www.w3.org/2000/svg" xmlns:xlink="http://www.w3.org/1999/xlink" x="0px" y="0px"
	 viewBox="0 0 40 40" style="enable-background:new 0 0 40 40;" xml:space="preserve">
<style type="text/css">
	.st0{fill:#5D0E8B;}
</style>
<g>
	<g>
		<path class="st0" d="M5.1,17.7c0-0.6-0.5-1.1-1.1-1.1H1.6c-0.6,0-1.1,0.5-1.1,1.1s0.5,1.1,1.1,1.1h2.3C4.6,18.9,5.1,18.3,5.1,17.7
			z"/>
		<path class="st0" d="M38.4,16.6h-2.3c-0.6,0-1.1,0.5-1.1,1.1s0.5,1.1,1.1,1.1h2.3c0.6,0,1.1-0.5,1.1-1.1S39,16.6,38.4,16.6z"/>
		<path class="st0" d="M6.7,8.7l-2-1.1C4.2,7.3,3.5,7.5,3.2,8S3,9.2,3.6,9.6l2,1.1c0.5,0.3,1.2,0.1,1.6-0.4C7.5,9.7,7.3,9,6.7,8.7z"
			/>
		<path class="st0" d="M36.4,25.9l-2-1.1c-0.5-0.3-1.2-0.1-1.6,0.4c-0.3,0.5-0.1,1.2,0.4,1.6l2,1.1c0.5,0.3,1.2,0.1,1.6-0.4
			C37.1,26.9,37,26.2,36.4,25.9z"/>
		<path class="st0" d="M11,4.2c0.3,0.5,1,0.7,1.6,0.4c0.5-0.3,0.7-1,0.4-1.6l-1.1-2c-0.3-0.5-1-0.7-1.6-0.4C9.7,1,9.6,1.7,9.9,2.2
			L11,4.2z"/>
		<path class="st0" d="M5.6,24.7l-2,1.1c-0.5,0.3-0.7,1-0.4,1.6c0.3,0.5,1,0.7,1.6,0.4l2-1.1c0.5-0.3,0.7-1,0.4-1.6
			C6.8,24.6,6.1,24.4,5.6,24.7z"/>
		<path class="st0" d="M34.4,10.7l2-1.1c0.5-0.3,0.7-1,0.4-1.6c-0.3-0.5-1-0.7-1.6-0.4l-2,1.1c-0.5,0.3-0.7,1-0.4,1.6
			C33.2,10.8,33.9,11,34.4,10.7z"/>
		<path class="st0" d="M27.4,4.6C28,4.9,28.7,4.7,29,4.2l1.1-2c0.3-0.5,0.1-1.2-0.4-1.6c-0.5-0.3-1.2-0.1-1.6,0.4L27,3
			C26.7,3.6,26.9,4.3,27.4,4.6z"/>
		<path class="st0" d="M27.9,8c-3-2.4-6.8-3.3-10.6-2.5c-4.9,1-8.8,5.1-9.7,10.1c-0.7,4.2,0.7,8.4,3.7,11.3c1.6,1.5,2.6,3.6,2.9,5.8
			h4.7v-5.4l-4.3-6.5l-2.2-2.2c-0.4-0.4-0.4-1.2,0-1.6s1.2-0.4,1.6,0l1.5,1.5L17,17c0.4-0.4,1.2-0.4,1.6,0l1.5,1.5l1.5-1.5
			c0.4-0.4,1.2-0.4,1.6,0l1.5,1.5l1.5-1.5c0.4-0.4,1.2-0.4,1.6,0s0.4,1.2,0,1.6l-2.2,2.2l-4.3,6.5v5.4h4.6c0.1-2.1,1.1-4.1,2.8-5.7
			c2.5-2.4,4-5.7,4-9.2C32.6,13.9,30.9,10.4,27.9,8z"/>
		<path class="st0" d="M22.3,19.3l-1.5,1.5c-0.4,0.4-1.2,0.4-1.6,0l-1.5-1.5l-0.8,0.8l3.1,4.7l3.1-4.7L22.3,19.3z"/>
		<path class="st0" d="M14.3,36.1c0,1.9,1.5,3.4,3.4,3.4h4.6c1.9,0,3.4-1.5,3.4-3.4v-1.2H14.3V36.1z"/>
	</g>
</g>
</svg>
